{"glyphs":{"0":{"ha":395,"x_min":2,"x_max":334,"o":"m 2 251 q 58 478 2 406 q 176 537 104 537 q 257 512 222 537 q 314 434 293 488 q 334 289 334 380 q 316 129 334 200 q 252 22 297 58 q 165 -5 218 -5 q 42 62 81 -5 q 2 251 2 130 m 50 270 q 59 158 50 200 q 86 89 68 115 q 125 52 105 62 q 173 42 144 42 q 232 57 207 42 q 276 116 258 73 q 294 243 294 159 q 277 393 294 322 q 255 445 270 424 q 221 477 241 467 q 170 488 201 488 q 119 477 140 488 q 84 445 99 467 q 64 398 73 430 q 50 270 50 345 z "},"1":{"ha":292,"x_min":33,"x_max":184,"o":"m 184 545 l 184 -1 l 66 -1 q 133 33 128 16 l 133 479 q 33 471 127 526 l 70 545 l 184 545 z "},"2":{"ha":384,"x_min":18,"x_max":332,"o":"m 24 374 q 68 473 39 433 q 129 525 97 512 q 192 538 160 538 q 264 519 231 538 q 314 469 297 501 q 332 396 332 436 q 319 328 332 361 q 264 239 302 287 q 102 59 225 191 l 259 59 q 301 72 293 59 q 279 111 310 85 l 330 111 l 330 0 l 18 0 l 18 22 q 180 198 132 140 q 248 305 228 256 q 262 376 262 338 q 238 450 262 425 q 176 476 214 476 q 109 457 142 476 q 24 374 76 437 z "},"3":{"ha":418,"x_min":8,"x_max":311,"o":"m 22 424 q 57 505 22 470 q 111 534 83 524 q 167 543 138 543 q 229 529 201 543 q 270 490 256 515 q 284 437 284 465 q 212 320 284 371 q 275 286 252 309 q 311 189 311 249 q 252 54 311 110 q 104 -3 193 -3 q 8 16 56 -3 l 8 111 q 136 35 38 30 q 215 67 184 35 q 247 155 247 100 q 214 241 247 209 q 81 288 180 274 q 197 348 172 318 q 223 412 223 377 q 202 465 223 445 q 147 485 182 485 q 22 424 79 497 z "},"4":{"ha":435,"x_min":-37,"x_max":389,"o":"m 338 547 q 292 508 292 531 l 293 178 q 389 104 359 168 q 293 134 332 142 l 293 -1 l 138 -1 q 237 34 231 12 l 236 136 l -37 136 l 253 547 l 338 547 m 239 176 l 239 448 l 47 176 l 239 176 z "},"5":{"ha":388,"x_min":0,"x_max":330,"o":"m 311 540 l 330 474 q 260 501 298 503 l 115 501 l 92 390 q 223 355 167 390 q 302 207 302 305 q 274 102 302 149 q 195 28 247 56 q 94 1 143 1 q 0 32 56 1 l 0 114 q 65 52 31 59 q 130 44 99 44 q 217 84 189 44 q 246 176 246 125 q 225 252 246 218 q 164 302 205 285 q 77 320 123 320 q 36 317 63 320 l 84 540 l 311 540 z "},"6":{"ha":433,"x_min":-1,"x_max":330,"o":"m 287 541 q 163 440 184 465 q 115 373 142 416 q 82 293 97 344 q 154 343 138 335 q 193 351 171 351 q 292 309 253 351 q 330 194 330 267 q 286 61 330 121 q 161 0 241 0 q 45 53 92 0 q -1 197 -1 105 q 61 393 -1 304 q 287 541 132 494 m 268 161 q 257 219 268 184 q 223 275 246 255 q 170 296 200 296 q 123 282 145 296 q 91 247 100 268 q 81 195 81 227 q 116 73 81 118 q 180 37 144 37 q 245 74 223 37 q 268 161 268 111 z "},"7":{"ha":429,"x_min":-37,"x_max":323,"o":"m -37 462 l 38 543 l 323 543 l 154 3 q 18 -45 97 -3 q 104 36 81 -1 l 258 495 l 56 495 l -37 462 z "},"8":{"ha":405,"x_min":10,"x_max":318,"o":"m 120 281 q 41 353 59 326 q 23 413 23 380 q 65 504 23 465 q 177 543 108 543 q 273 512 239 543 q 307 437 307 482 q 284 370 307 401 q 205 301 262 339 q 274 249 253 269 q 307 207 296 229 q 318 153 318 184 q 273 50 318 93 q 153 6 227 6 q 47 41 85 6 q 10 128 10 75 q 31 200 10 168 q 120 281 52 232 m 172 320 q 228 372 212 347 q 244 425 244 397 q 221 484 244 460 q 160 507 197 507 q 101 486 123 507 q 79 434 79 465 q 86 398 79 414 q 112 366 94 383 q 172 320 131 348 m 155 260 q 97 200 116 233 q 79 134 79 168 q 107 65 79 94 q 176 37 136 37 q 239 62 214 37 q 264 125 264 87 q 253 170 264 149 q 216 216 242 192 q 155 260 197 234 z "},"9":{"ha":432,"x_min":9,"x_max":350,"o":"m 53 -17 q 231 159 159 51 q 270 254 253 195 q 200 198 228 213 q 147 184 173 184 q 50 229 92 184 q 9 349 9 273 q 60 489 9 435 q 186 543 112 543 q 304 494 259 543 q 350 349 350 444 q 316 194 350 272 q 219 66 282 116 q 53 -17 157 16 m 70 387 q 100 278 70 314 q 172 242 130 242 q 236 273 208 242 q 264 353 264 303 q 235 459 264 414 q 159 504 205 504 q 97 474 123 504 q 70 387 70 444 z "},"\r":{"ha":463,"x_min":0,"x_max":0,"o":""}," ":{"ha":386,"x_min":0,"x_max":0,"o":""},"!":{"ha":390,"x_min":3,"x_max":119,"o":"m 113 116 l 90 156 l 58 561 q 3 624 66 633 q 15 640 7 631 q 30 656 22 648 q 47 670 38 665 q 63 676 56 676 l 119 676 l 113 116 m 86 3 l 113 3 l 113 73 l 86 73 l 86 3 z "},"#":{"ha":606,"x_min":60,"x_max":532,"o":"m 189 374 l 223 534 l 238 374 l 405 374 l 439 534 l 454 374 l 532 374 l 444 325 l 414 178 l 532 178 l 404 129 l 370 -31 l 355 129 l 187 129 l 153 -31 l 138 129 l 60 129 l 149 178 l 179 325 l 60 325 l 189 374 m 231 326 l 199 178 l 367 178 l 397 326 l 231 326 z "},"%":{"ha":870,"x_min":33,"x_max":701,"o":"m 33 488 q 72 633 33 587 q 170 679 111 679 q 262 636 231 679 q 293 513 293 593 q 255 372 293 416 q 159 327 217 327 q 67 367 102 327 q 33 488 33 406 m 81 497 q 109 387 81 417 q 163 366 128 366 q 216 387 197 366 q 244 503 244 418 q 213 626 244 589 q 161 648 194 648 q 109 626 127 648 q 81 497 81 592 m 521 668 l 633 703 q 509 512 574 612 q 376 314 444 413 q 239 120 308 214 q 106 -56 171 25 q 87 -78 94 -72 q 74 -87 81 -84 q 59 -95 68 -91 q 33 -109 50 -99 l 521 668 m 440 152 q 479 297 440 251 q 578 342 518 342 q 670 299 639 342 q 701 177 701 256 q 663 35 701 80 q 567 -9 625 -9 q 475 30 511 -9 q 440 152 440 70 m 493 156 q 522 45 493 77 q 576 24 541 24 q 628 46 609 24 q 656 161 656 78 q 625 285 656 248 q 574 307 606 307 q 522 285 540 307 q 493 156 493 251 z "},"&":{"ha":1084,"x_min":40,"x_max":753,"o":"m 462 351 l 493 416 l 625 416 q 568 262 619 324 q 486 140 533 199 q 561 80 532 96 q 616 64 590 64 q 665 74 639 64 q 753 159 691 83 q 662 8 710 33 q 591 -17 614 -17 q 426 75 517 -17 q 323 5 374 27 q 212 -17 272 -17 q 88 31 136 -17 q 40 147 40 78 q 81 258 40 207 q 239 370 121 309 q 205 458 214 423 q 196 525 196 493 q 248 629 196 582 q 377 675 300 675 q 464 646 433 675 q 496 568 496 616 q 333 379 496 458 q 384 285 360 324 q 458 174 408 245 q 521 279 500 229 q 542 357 542 330 q 462 351 529 393 m 297 407 q 389 469 363 437 q 415 541 415 500 q 393 610 415 585 q 341 635 372 635 q 302 623 321 635 q 273 589 282 611 q 263 541 263 568 q 297 407 263 490 m 253 325 q 188 280 208 299 q 147 227 160 254 q 134 170 134 200 q 170 85 134 121 q 256 50 205 50 q 388 109 323 50 q 253 325 312 205 z "},"'":{"ha":140,"x_min":-14,"x_max":105,"o":"m 12 481 l 38 551 q 22 621 58 594 q -14 635 11 628 l 105 635 q 12 481 97 568 z "},"(":{"ha":449,"x_min":50,"x_max":351,"o":"m 351 -273 q 230 -195 279 -239 q 99 -10 149 -122 q 50 251 50 102 q 87 482 50 373 q 205 673 125 591 q 351 776 262 734 q 264 646 298 693 q 185 473 217 580 q 154 250 154 366 q 188 23 154 130 q 265 -145 221 -83 q 351 -273 297 -188 z "},")":{"ha":449,"x_min":50,"x_max":351,"o":"m 136 -145 q 213 23 180 -83 q 247 250 247 130 q 215 473 247 366 q 136 646 184 580 q 50 776 102 693 q 196 673 138 734 q 314 482 276 591 q 351 251 351 373 q 302 -10 351 102 q 171 -195 252 -122 q 50 -273 121 -239 q 136 -145 104 -188 z "},"*":{"ha":652,"x_min":30,"x_max":441,"o":"m 282 861 q 252 680 232 770 q 413 762 335 684 l 441 674 q 265 648 335 684 q 297 597 281 615 q 329 568 313 580 q 360 548 345 557 q 391 523 376 538 l 315 469 q 234 629 305 564 q 154 469 170 564 l 77 523 q 115 542 98 533 q 146 564 132 551 q 176 597 161 577 q 206 648 190 616 q 30 678 126 690 l 58 766 l 130 684 l 218 684 q 189 858 228 764 l 282 861 z "},"+":{"ha":102,"x_min":-1664,"x_max":2711,"o":"m 1 -530 l -14 622 l -1664 650 l -14 659 l 5 1191 l 17 659 l 2711 640 l 18 623 l 1 -530 z "},",":{"ha":390,"x_min":28,"x_max":177,"o":"m 58 -104 l 58 -74 q 109 -3 87 -41 q 159 -38 141 -14 q 177 -93 177 -63 q 28 -290 177 -176 q 122 -130 122 -178 q 111 -99 122 -111 q 87 -87 100 -87 q 58 -104 81 -87 z "},"-":{"ha":593,"x_min":0,"x_max":501,"o":"m 44 256 l 501 256 l 450 208 l 0 208 l 44 256 z "},".":{"ha":376,"x_min":103,"x_max":186,"o":"m 144 75 q 174 63 161 75 q 186 34 186 51 q 174 4 186 16 q 144 -7 161 -7 q 115 4 127 -7 q 103 34 103 16 q 115 63 103 51 q 144 75 127 75 z "},"/":{"ha":560,"x_min":41,"x_max":501,"o":"m 382 669 l 501 777 q 453 679 480 733 q 395 566 425 625 q 333 445 365 507 q 270 325 300 383 q 210 215 239 267 q 159 122 182 163 q 119 55 136 81 q 96 23 103 29 l 41 -27 l 382 669 z "},":":{"ha":345,"x_min":43,"x_max":153,"o":"m 43 338 l 153 338 l 153 229 l 43 229 l 43 338 m 43 169 l 153 169 l 153 60 l 43 60 l 43 169 z "},";":{"ha":305,"x_min":66,"x_max":171,"o":"m 120 293 q 152 280 139 293 q 165 248 165 267 q 152 216 165 229 q 120 203 139 203 q 88 216 102 203 q 75 248 75 230 q 88 280 75 267 q 120 293 101 293 m 77 35 l 66 49 q 111 112 91 78 q 155 80 138 102 q 171 33 171 58 q 92 -110 171 -41 l 75 -90 q 121 0 121 -43 q 112 27 121 16 q 91 37 102 37 q 77 35 86 37 z "},"=":{"ha":593,"x_min":47,"x_max":454,"o":"m 49 319 l 454 319 l 454 270 l 49 270 l 49 319 m 47 186 l 452 186 l 452 137 l 47 137 l 47 186 z "},"?":{"ha":534,"x_min":17,"x_max":340,"o":"m 17 507 l 18 614 q 100 659 71 648 q 179 673 139 673 q 295 630 250 673 q 340 523 340 586 q 332 469 340 496 q 309 418 323 441 q 251 336 303 409 q 202 250 217 289 q 179 145 187 211 l 140 145 q 154 242 142 201 q 206 361 165 283 q 269 505 254 438 q 250 588 282 557 q 173 624 218 619 q 90 605 128 628 q 17 507 52 581 m 133 -3 l 182 -3 l 182 86 l 133 86 l 133 -3 z "},"@":{"ha":1274,"x_min":75,"x_max":802,"o":"m 623 382 l 574 216 q 535 57 535 82 q 544 34 535 43 q 567 24 553 24 q 640 55 597 24 q 713 154 683 85 q 744 298 744 223 q 710 430 744 369 q 612 523 675 490 q 473 555 549 555 q 293 504 376 555 q 162 356 210 452 q 114 157 114 260 q 156 -18 114 60 q 276 -137 199 -97 q 441 -178 353 -178 q 640 -119 551 -178 q 778 54 729 -60 l 802 54 q 665 -132 764 -61 q 439 -203 566 -203 q 179 -98 283 -203 q 75 168 75 7 q 126 373 75 278 q 272 523 178 469 q 470 576 365 576 q 626 541 557 576 q 732 436 696 505 q 769 290 769 368 q 735 138 769 214 q 648 28 701 62 q 538 -5 595 -5 q 490 9 506 -5 q 474 53 474 24 q 481 113 474 75 q 386 19 424 44 q 317 -5 349 -5 q 264 21 287 -5 q 241 92 241 47 q 280 228 241 152 q 385 350 320 303 q 471 385 433 385 q 518 370 499 385 q 543 327 536 356 l 557 373 l 623 382 m 452 356 q 386 322 420 356 q 301 185 337 273 q 275 85 275 122 q 291 38 275 56 q 326 21 307 21 q 379 40 351 21 q 438 100 408 60 q 483 182 469 140 q 507 292 507 250 q 491 339 507 322 q 452 356 475 356 z "},"A":{"ha":833,"x_min":22,"x_max":833,"o":"m 354 681 l 704 -24 q 833 -161 752 -119 q 652 -69 699 -151 l 471 270 l 224 270 l 130 84 q 204 41 109 37 q 125 1 165 1 l 22 1 l 354 681 m 349 519 l 242 314 l 449 313 l 349 519 z "},"B":{"ha":535,"x_min":1,"x_max":500,"o":"m 3 581 q 18 592 12 587 q 28 601 23 597 q 40 606 34 604 q 58 608 47 608 l 277 608 q 456 553 411 607 q 488 418 500 499 q 372 333 475 338 q 498 181 498 317 q 248 0 498 1 l 58 0 q 37 4 45 0 q 22 14 28 8 q 12 27 16 20 q 1 39 7 34 q 79 64 71 28 q 75 555 94 313 q 3 581 73 589 m 136 355 l 291 355 q 427 414 409 355 q 409 519 444 473 q 277 566 373 566 l 138 566 l 136 355 m 137 52 l 289 55 q 413 103 374 54 q 426 229 451 153 q 290 307 401 306 l 136 308 l 137 52 z "},"C":{"ha":486,"x_min":-1,"x_max":491,"o":"m 237 543 q 441 472 366 541 l 416 422 q 405 411 412 416 q 389 402 398 406 q 371 394 380 398 q 355 387 362 391 l 378 431 q 317 486 391 461 q 169 485 242 511 q 67 380 95 460 q 56 214 40 301 q 128 84 71 127 q 280 43 185 41 q 491 136 398 51 q 244 0 436 7 q 66 77 133 0 q 0 267 -1 153 q 237 543 0 543 z "},"D":{"ha":512,"x_min":18,"x_max":481,"o":"m 18 518 q 35 534 26 525 q 51 543 43 543 l 231 543 q 422 489 362 543 q 481 264 481 435 q 436 66 481 127 q 243 0 391 5 l 52 0 q 42 3 46 0 q 34 12 37 7 q 26 21 30 16 q 18 31 22 26 q 88 55 87 31 q 96 271 96 162 q 87 494 95 379 q 18 518 79 522 m 147 41 l 258 41 q 381 113 356 43 q 407 264 407 182 q 378 435 408 368 q 258 503 347 502 l 147 504 l 147 41 z "},"E":{"ha":709,"x_min":18,"x_max":737,"o":"m 506 863 l 506 775 q 502 765 506 771 q 492 751 498 759 q 480 736 486 744 q 469 722 474 729 q 436 800 474 800 l 173 800 l 173 471 l 307 471 q 413 404 364 467 l 173 404 l 173 79 l 515 79 q 648 166 573 77 q 583 63 635 111 l 526 20 q 437 -140 461 -24 q 547 -379 412 -257 q 737 -435 624 -435 q 712 -438 726 -436 q 689 -439 698 -439 l 646 -437 q 458 -336 517 -418 q 397 -143 390 -248 q 446 0 406 -52 l 64 0 q 40 11 52 0 q 18 33 27 22 q 90 74 85 31 q 94 785 129 432 q 22 824 84 832 q 34 837 26 830 q 50 849 41 844 q 65 859 58 855 q 76 863 73 863 l 506 863 z "},"F":{"ha":1923,"x_min":23,"x_max":1866,"o":"m 1321 680 l 1866 680 l 1866 562 q 1825 618 1847 618 q 1818 617 1822 618 l 1472 617 l 1471 336 l 1704 340 q 1815 265 1775 339 q 1553 285 1685 285 q 1474 283 1513 285 l 1474 -51 q 1402 -190 1474 -132 q 1423 -140 1415 -165 q 1432 -87 1432 -115 q 1412 -103 1423 -96 q 1391 -113 1402 -109 q 1407 -46 1407 -84 l 1407 286 l 23 306 l 1405 332 q 1407 455 1407 401 q 1393 646 1407 631 q 1321 680 1375 665 z "},"G":{"ha":644,"x_min":12,"x_max":616,"o":"m 616 241 q 575 87 602 131 q 504 8 549 43 q 429 -155 446 -43 q 435 -35 414 -87 q 346 -54 417 -47 q 97 18 182 -53 q 12 225 12 88 q 98 460 12 367 q 312 554 184 553 l 359 553 q 492 515 446 552 l 513 461 q 420 511 482 500 q 265 503 340 526 q 133 407 187 477 q 75 224 79 338 q 158 47 79 100 q 333 -5 237 -5 q 528 136 501 12 q 449 208 550 216 q 468 231 458 220 q 492 242 478 242 l 616 241 z "},"H":{"ha":723,"x_min":15,"x_max":689,"o":"m 250 707 l 250 338 l 519 338 l 512 602 q 503 639 512 626 q 482 659 494 652 q 456 666 470 665 q 432 667 443 667 q 446 679 439 672 q 459 692 452 686 q 474 703 467 699 q 488 707 481 707 l 578 707 l 576 -150 q 689 -312 583 -227 q 517 -117 524 -244 l 519 285 l 250 283 l 251 -96 l 151 -96 l 96 -64 q 131 -64 117 -65 q 153 -61 144 -64 q 164 -54 161 -58 q 168 -45 168 -50 q 178 16 173 -18 q 188 90 184 50 q 193 178 191 130 q 192 283 195 227 q 15 254 45 284 q 193 340 18 343 q 192 409 192 373 q 190 482 192 445 q 183 557 188 519 q 168 634 178 595 q 163 648 166 642 q 153 659 161 654 q 132 666 146 663 q 93 668 117 668 q 121 694 107 681 q 154 707 136 707 l 250 707 z "},"I":{"ha":270,"x_min":19,"x_max":242,"o":"m 239 588 q 161 562 160 589 l 160 62 q 242 36 159 35 q 129 0 224 0 q 19 36 32 3 q 100 64 99 35 l 100 562 q 25 588 100 589 q 130 623 47 623 q 239 588 212 623 z "},"J":{"ha":651,"x_min":20,"x_max":530,"o":"m 530 637 q 454 614 454 641 l 454 52 q 361 -56 453 -12 q 20 -109 269 -100 q 389 51 395 -36 l 389 614 q 309 637 388 637 q 422 678 338 679 q 530 637 494 678 z "},"K":{"ha":1033,"x_min":1,"x_max":1025,"o":"m 127 544 l 127 304 l 161 272 l 302 458 q 364 634 364 524 q 342 432 404 506 l 202 240 q 402 79 334 127 q 551 0 470 31 q 1025 163 853 -87 q 701 -73 917 -68 q 406 18 551 -73 q 127 246 271 98 l 127 0 l 44 0 q 32 4 37 -1 q 21 14 26 8 q 12 27 16 20 q 1 39 7 35 q 61 66 56 33 q 69 157 65 112 q 75 252 73 202 q 74 359 76 302 q 65 486 73 416 q 57 508 64 500 q 40 519 50 515 q 20 522 30 522 q 1 521 9 522 q 8 528 4 524 q 17 535 12 532 q 25 542 21 539 q 32 544 29 544 l 127 544 z "},"L":{"ha":696,"x_min":0,"x_max":670,"o":"m 66 671 l 166 671 l 166 -83 l 446 -83 q 670 26 572 -77 q 547 -109 633 -70 q 500 -140 522 -121 q 464 -184 479 -160 q 440 -234 448 -208 q 435 -282 433 -259 q 426 -255 431 -267 q 420 -229 422 -242 q 422 -199 419 -216 q 436 -157 426 -182 l 77 -157 l 0 -109 q 68 -100 43 -106 q 104 93 93 -93 q 93 581 116 279 q 0 616 83 633 l 66 671 z "},"M":{"ha":805,"x_min":1,"x_max":787,"o":"m 694 -28 q 787 -195 692 -124 q 620 -37 641 -149 l 621 446 l 407 239 l 157 454 l 157 93 q 271 -35 176 22 q 139 30 191 -16 q 92 138 87 76 l 92 460 q 52 501 93 500 l 1 501 q 13 514 6 507 q 28 527 20 521 q 44 538 36 534 q 57 543 52 543 l 157 543 l 406 327 l 624 543 l 699 543 q 762 501 720 543 q 712 496 731 502 q 694 475 694 490 l 694 -28 z "},"N":{"ha":652,"x_min":7,"x_max":587,"o":"m 587 543 l 586 -65 l 134 433 l 134 94 q 201 -10 133 45 q 107 45 144 7 q 72 154 71 82 l 72 464 q 43 504 71 503 l 7 504 q 17 515 11 509 q 30 528 23 522 q 44 538 37 534 q 56 543 52 543 l 125 543 l 525 98 l 523 471 q 444 505 517 511 q 455 518 448 511 q 468 530 461 524 q 483 539 475 535 q 497 543 491 543 l 587 543 z "},"P":{"ha":556,"x_min":9,"x_max":526,"o":"m 361 543 q 526 412 526 543 q 360 248 525 248 l 210 248 l 210 33 q 9 -113 204 -56 q 150 51 150 -39 l 150 473 q 142 496 150 488 q 124 509 135 505 q 102 513 113 513 q 81 513 90 513 q 95 532 86 521 q 113 543 104 543 l 361 543 m 210 289 l 339 288 q 468 408 468 288 q 336 508 469 508 l 212 508 l 210 289 z "},"R":{"ha":1013,"x_min":0,"x_max":1005,"o":"m 0 513 q 17 531 8 521 q 33 543 25 541 l 298 543 q 446 407 446 542 q 221 247 449 245 q 625 -28 391 40 q 1005 153 859 -96 q 720 -86 926 -83 q 427 0 571 -86 q 149 247 282 86 l 130 248 l 130 0 l 38 0 q 1 31 23 0 q 18 31 9 31 q 33 33 26 31 q 45 37 40 34 q 52 47 50 41 q 63 164 59 104 q 68 281 67 223 q 67 393 69 338 q 60 493 64 447 q 0 513 52 519 m 128 289 l 258 289 q 399 408 399 290 q 255 503 397 503 l 128 503 l 128 289 z "},"S":{"ha":438,"x_min":14,"x_max":392,"o":"m 273 646 l 304 644 q 355 608 346 638 q 323 579 357 580 q 253 596 281 598 q 176 577 205 594 q 123 519 147 559 q 97 401 94 461 q 153 294 101 340 q 311 155 233 220 q 392 -3 386 87 l 392 -39 q 340 -191 389 -115 q 210 -300 300 -248 q 115 -323 171 -319 l 69 -325 q 14 -311 38 -323 q 167 -291 91 -323 q 304 -165 256 -253 q 328 7 352 -77 q 279 80 320 43 q 92 250 144 172 q 57 337 63 296 q 52 389 52 359 l 53 433 q 181 620 80 573 q 273 646 220 641 z "},"T":{"ha":640,"x_min":24,"x_max":610,"o":"m 24 494 l 24 557 l 610 557 l 610 493 q 565 441 608 477 q 559 485 566 467 q 534 504 553 503 l 321 505 l 321 -37 q 333 -91 323 -68 q 353 -130 342 -114 q 375 -155 364 -145 q 393 -170 387 -164 q 349 -149 372 -159 q 306 -124 326 -140 q 272 -86 286 -109 q 256 -24 258 -62 l 256 505 l 111 504 q 86 497 95 503 q 71 483 77 492 q 63 463 66 474 q 58 442 60 452 q 24 494 24 477 z "},"U":{"ha":567,"x_min":14,"x_max":517,"o":"m 64 537 l 166 537 l 166 200 q 321 52 163 54 q 463 195 465 56 l 463 484 q 385 628 462 563 q 517 519 517 581 l 517 195 q 316 1 517 7 q 89 200 87 -2 l 89 469 q 14 502 89 501 q 64 537 49 537 z "},"V":{"ha":767,"x_min":8,"x_max":756,"o":"m 8 679 q 220 571 168 673 l 452 94 l 640 451 q 587 506 675 513 q 597 519 592 512 q 607 532 602 526 q 618 541 612 537 q 635 545 625 545 l 756 545 l 443 -39 l 148 564 q 8 679 103 640 z "},"W":{"ha":1157,"x_min":-16,"x_max":1110,"o":"m -16 797 q 235 670 170 791 l 505 114 l 597 297 l 517 463 q 354 615 477 562 q 588 525 511 621 l 651 395 l 721 531 q 659 595 755 607 q 673 609 666 601 q 687 624 680 616 q 701 635 694 631 q 715 640 707 640 l 842 639 l 675 314 l 777 132 l 990 546 q 931 596 1027 606 q 946 612 938 604 q 962 626 954 620 q 979 637 970 633 q 996 641 988 641 l 1110 641 l 760 -36 l 622 212 l 490 -43 l 147 663 q -16 797 95 751 z "},"X":{"ha":528,"x_min":-34,"x_max":518,"o":"m -16 678 q 196 570 144 673 l 303 361 l 429 513 q 378 543 437 534 l 518 543 l 328 310 l 487 0 l 361 0 q 397 26 401 9 l 283 255 l 75 0 l -34 0 q 48 45 24 20 l 255 303 l 124 563 q -16 678 79 639 z "},"Y":{"ha":586,"x_min":10,"x_max":552,"o":"m 220 -158 q 338 -9 338 -60 l 338 244 l 155 518 q 10 636 119 589 q 191 551 136 634 l 362 308 l 451 460 q 399 498 477 498 q 409 506 401 502 q 423 515 416 511 q 437 522 431 519 q 447 525 444 524 l 552 525 l 397 256 l 397 -6 q 220 -158 397 -80 z "},"Z":{"ha":546,"x_min":10,"x_max":516,"o":"m 10 543 l 462 543 l 146 53 l 380 53 q 516 138 454 52 q 342 0 458 0 l 58 0 q 45 4 51 0 q 33 14 39 8 q 22 26 28 20 q 10 37 16 32 q 87 67 56 36 l 363 497 l 84 497 q 37 450 39 496 q 11 494 10 478 l 10 543 z "},"[":{"ha":449,"x_min":22,"x_max":295,"o":"m 292 678 l 213 639 l 100 639 l 100 -161 l 213 -161 l 295 -203 l 22 -203 q 22 678 86 245 l 292 678 z "},"\\":{"ha":737,"x_min":10,"x_max":743,"o":"m 743 -106 q 706 -82 728 -96 q 660 -55 684 -68 q 611 -33 635 -42 q 567 -25 586 -24 q 452 245 516 110 q 315 513 387 380 q 165 774 243 646 q 10 1022 87 902 q 51 1002 27 1013 q 97 980 74 990 q 142 965 121 970 q 176 962 163 959 q 293 683 227 822 q 434 410 359 545 q 588 145 509 275 q 743 -106 667 16 z "},"_":{"ha":694,"x_min":-43,"x_max":753,"o":"m -8 -104 l 753 -103 l 703 -174 l -43 -174 l -8 -104 z "},"a":{"ha":811,"x_min":-3,"x_max":808,"o":"m 329 681 l 679 -24 q 808 -161 727 -119 q 627 -69 673 -151 l 446 270 l 199 270 l 104 84 q 179 41 83 37 q 100 1 140 1 l -3 1 l 329 681 m 323 519 l 217 314 l 424 313 l 323 519 z "},"b":{"ha":614,"x_min":7,"x_max":560,"o":"m 14 686 l 328 686 q 504 618 447 680 q 545 481 560 556 q 424 369 530 407 q 558 202 554 332 q 277 0 538 -2 l 7 0 q 89 72 79 26 l 89 349 q 13 337 66 357 q 88 394 41 394 l 88 490 l 88 630 q 14 686 93 663 m 152 397 l 366 397 q 479 464 442 401 q 468 575 515 526 q 352 630 421 624 l 154 630 l 152 397 m 153 58 l 323 61 q 483 120 441 73 q 501 241 524 168 q 363 342 478 314 l 152 343 l 153 58 z "},"c":{"ha":505,"x_min":0,"x_max":491,"o":"m 237 543 q 441 472 366 541 l 413 416 l 355 387 l 378 431 q 317 486 391 461 q 176 481 242 511 q 75 376 109 451 q 59 215 40 301 q 132 85 78 129 q 280 43 185 41 q 491 136 398 51 q 244 1 436 7 q 69 81 133 4 q 0 267 5 158 q 237 543 22 515 z "},"e":{"ha":543,"x_min":0,"x_max":506,"o":"m 59 543 l 376 543 l 376 479 l 340 427 l 342 452 q 278 495 349 496 l 138 495 l 138 317 l 286 317 q 349 270 324 311 l 136 270 l 136 53 l 370 53 q 506 138 441 58 q 436 38 474 69 q 332 0 398 6 l 59 0 l 0 37 q 62 50 47 33 q 81 176 77 67 q 81 447 84 286 q 8 506 80 520 l 59 543 z "},"f":{"ha":497,"x_min":5,"x_max":465,"o":"m 5 542 l 465 542 l 464 442 q 424 488 446 498 l 132 488 l 132 251 l 328 255 q 422 192 388 254 q 133 207 279 213 l 134 -66 q 58 -203 137 -140 q 77 -66 82 -122 l 77 210 l 76 248 q 65 513 80 496 q 5 542 51 529 z "},"g":{"ha":567,"x_min":12,"x_max":522,"o":"m 521 235 l 522 176 q 507 84 522 124 q 444 4 492 44 q 418 -83 416 -30 q 407 -28 404 -60 q 302 -54 362 -48 q 87 20 162 -50 q 12 218 12 90 q 90 448 12 357 q 271 541 169 538 l 311 540 q 427 502 387 538 l 445 450 q 364 498 418 488 q 231 491 296 513 q 123 400 163 465 q 70 218 70 329 q 149 39 79 93 q 314 -7 218 -14 q 473 138 435 9 q 471 198 479 184 q 399 216 463 212 l 432 235 l 521 235 z "},"h":{"ha":569,"x_min":20,"x_max":529,"o":"m 73 541 l 177 548 q 197 252 200 545 l 385 253 l 386 475 q 336 557 389 547 l 420 565 q 434 295 436 549 l 434 -43 q 529 -178 440 -106 q 385 -14 391 -121 l 386 208 l 199 208 l 200 -63 q 180 -109 208 -97 l 140 -107 l 77 -91 q 144 -54 142 -89 l 143 210 q 20 188 95 218 q 142 249 75 245 q 132 511 147 495 q 73 541 117 528 z "},"j":{"ha":566,"x_min":18,"x_max":525,"o":"m 525 656 q 452 627 466 652 l 452 52 q 362 -54 458 -9 q 18 -109 267 -100 q 387 51 393 -36 l 387 627 q 310 652 382 655 q 420 677 315 676 q 525 656 515 677 z "},"k":{"ha":937,"x_min":6,"x_max":920,"o":"m 10 521 l 33 544 l 127 544 l 127 294 q 409 543 366 429 q 371 401 417 459 q 195 271 326 342 q 406 82 340 125 q 564 -3 471 39 q 920 -1 722 -78 q 799 -68 862 -50 q 705 -80 751 -79 q 474 -22 561 -58 q 285 95 345 47 q 139 248 224 144 l 130 248 l 130 1 l 6 1 q 68 51 68 20 l 68 494 q 10 521 67 531 z "},"l":{"ha":471,"x_min":5,"x_max":459,"o":"m 58 625 l 96 625 q 119 593 115 623 l 119 185 l 337 185 q 459 261 401 190 q 396 171 431 199 q 302 138 362 143 l 58 138 l 5 170 q 61 182 47 168 q 78 295 75 197 q 78 538 81 393 q 12 591 81 616 l 58 625 z "},"n":{"ha":652,"x_min":7,"x_max":587,"o":"m 497 542 l 587 542 l 586 -65 l 134 429 l 134 94 q 201 -10 133 45 q 106 52 144 7 q 72 154 69 96 l 72 464 q 43 504 71 503 l 7 504 l 47 539 l 129 539 l 519 111 l 519 472 q 452 501 520 518 l 497 542 z "},"p":{"ha":559,"x_min":13,"x_max":530,"o":"m 95 521 l 117 544 l 382 544 q 492 509 458 542 q 530 412 530 473 q 513 339 530 371 q 463 286 496 308 q 318 248 427 253 l 214 248 l 214 1 q 13 -113 216 -47 q 153 51 160 -20 l 153 494 q 95 521 152 531 m 213 289 q 427 308 371 281 q 484 408 484 335 q 439 492 484 471 q 340 511 395 513 l 213 511 l 213 289 z "},"s":{"ha":409,"x_min":4,"x_max":382,"o":"m 263 764 l 294 762 q 345 726 336 756 q 313 697 347 698 q 243 714 271 716 q 166 695 195 712 q 113 637 137 677 q 87 519 83 579 q 142 412 91 458 q 300 273 222 338 q 382 115 376 205 l 382 79 q 330 -73 379 3 q 200 -182 290 -130 q 104 -205 161 -201 l 59 -207 q 4 -193 28 -205 q 157 -173 81 -205 q 294 -47 245 -135 q 317 125 342 41 q 269 198 310 161 q 81 368 134 290 q 47 455 53 414 q 41 507 42 477 l 43 551 q 171 738 70 691 q 263 764 210 759 z "},"v":{"ha":607,"x_min":5,"x_max":592,"o":"m 5 459 q 189 365 144 454 l 329 76 l 492 386 q 446 433 517 443 l 487 467 l 592 467 l 321 -39 l 127 359 q 5 459 87 425 z "},"w":{"ha":785,"x_min":9,"x_max":749,"o":"m 282 -1 l 115 465 q 9 513 99 518 l 50 545 l 148 544 l 293 122 l 427 515 l 568 128 l 686 483 q 606 508 701 514 l 635 545 l 749 545 l 568 -1 l 429 379 q 282 -1 366 214 z "},"x":{"ha":557,"x_min":-5,"x_max":543,"o":"m 13 678 q 224 570 172 673 l 332 361 l 460 513 q 407 543 465 534 l 543 543 l 359 312 l 515 -3 l 390 -3 q 426 26 430 9 l 310 256 l 97 -2 l -5 -1 q 77 45 52 20 l 283 303 l 153 563 q 13 678 108 639 z "},"z":{"ha":536,"x_min":0,"x_max":506,"o":"m 59 543 l 452 543 l 136 53 l 370 53 q 506 138 441 58 q 436 38 474 69 q 332 0 398 6 l 59 0 l 0 37 q 77 67 47 33 l 353 497 l 74 497 q 8 463 42 500 l 59 543 z "},"{":{"ha":665,"x_min":192,"x_max":484,"o":"m 484 -281 l 484 -300 q 342 -229 397 -288 q 288 -96 288 -170 q 299 -10 288 -60 q 311 66 311 40 q 280 138 311 105 q 192 178 248 171 l 192 199 q 280 240 248 207 q 311 312 311 273 q 299 388 311 337 q 288 474 288 438 q 342 606 288 547 q 484 677 397 665 l 484 659 q 394 610 422 644 q 366 534 366 577 q 377 456 366 507 q 389 370 389 404 q 351 267 389 317 q 235 190 312 217 q 350 112 311 162 q 389 7 389 61 q 377 -78 389 -27 q 366 -157 366 -129 q 394 -233 366 -199 q 484 -281 422 -266 z "},"|":{"ha":52,"x_min":-975,"x_max":519,"o":"m -975 519 q 519 460 40 955 q -975 519 5 869 z "},"}":{"ha":665,"x_min":192,"x_max":484,"o":"m 282 -233 q 311 -157 311 -199 q 299 -78 311 -129 q 287 7 287 -27 q 326 112 287 61 q 441 190 366 162 q 326 267 364 217 q 287 370 287 317 q 299 456 287 404 q 311 534 311 507 q 282 610 311 577 q 192 659 254 644 l 192 677 q 334 606 279 665 q 389 474 389 547 q 377 388 389 438 q 365 312 365 337 q 396 240 365 273 q 484 199 428 207 l 484 178 q 396 138 428 171 q 365 66 365 105 q 377 -10 365 40 q 389 -96 389 -60 q 334 -229 389 -170 q 192 -300 279 -288 l 192 -281 q 282 -233 254 -266 z "},"~":{"ha":1946,"x_min":35,"x_max":1910,"o":"m 522 427 q 506 435 522 427 q 464 455 490 444 q 404 476 438 467 q 335 488 370 486 q 229 473 275 490 q 151 426 182 456 q 105 358 120 397 q 96 280 91 320 q 125 202 100 240 q 199 136 151 165 q 331 94 255 106 q 491 90 406 82 q 675 120 585 98 q 854 173 765 143 q 1030 236 943 203 q 1206 301 1118 270 q 1383 356 1294 332 q 1563 393 1472 381 q 1509 434 1538 420 q 1449 452 1480 447 q 1387 456 1419 456 q 1326 456 1356 456 q 1193 438 1262 458 q 1053 388 1124 418 q 908 326 981 359 q 763 268 836 293 q 689 244 730 256 q 602 221 647 231 q 509 206 556 212 q 418 202 462 200 q 337 216 374 204 q 272 252 299 227 q 437 236 357 231 q 596 262 518 241 q 750 315 674 283 q 903 380 827 347 q 1056 443 979 413 q 1212 488 1133 472 q 1334 503 1274 500 q 1447 496 1394 506 q 1547 462 1501 486 q 1627 397 1592 438 q 1732 388 1683 401 q 1819 349 1782 374 q 1880 290 1857 324 q 1906 218 1902 256 q 1891 142 1910 180 q 1828 72 1873 104 q 1858 135 1850 102 q 1860 201 1865 168 q 1837 262 1854 233 q 1793 314 1820 292 q 1731 348 1767 336 q 1654 359 1696 361 q 1684 277 1681 321 q 1673 193 1687 233 q 1631 118 1659 152 q 1566 65 1603 84 q 1488 44 1530 45 q 1404 68 1446 43 q 1466 70 1434 69 q 1526 80 1497 71 q 1579 107 1554 88 q 1622 163 1604 127 q 1644 268 1650 220 q 1608 357 1638 315 q 1455 327 1529 345 q 1311 286 1381 309 q 1173 237 1241 263 q 1038 186 1105 212 q 904 136 971 160 q 769 91 838 111 q 615 55 692 68 q 465 41 539 41 q 320 55 391 41 q 184 103 250 70 q 101 162 136 128 q 51 237 66 196 q 42 325 35 277 q 83 422 48 372 q 146 481 107 458 q 232 513 186 503 q 326 522 278 524 q 414 509 374 520 q 484 476 455 497 q 522 427 513 455 z "},"£":{"ha":608,"x_min":0,"x_max":560,"o":"m 0 -29 q 162 108 135 60 q 189 232 189 156 q 182 323 189 273 q 33 297 134 323 q 99 371 100 342 q 176 368 135 368 q 165 472 165 431 q 224 619 165 560 q 371 678 283 678 q 511 623 447 678 l 511 547 l 422 547 q 437 608 481 578 q 360 638 393 638 q 282 608 310 638 q 254 519 254 577 q 269 368 254 477 q 439 395 368 369 q 382 316 378 338 q 272 323 334 321 q 261 216 269 258 q 238 142 254 175 q 176 58 222 110 q 343 38 287 67 q 560 130 399 8 q 463 19 474 30 q 415 -21 435 -9 q 385 -28 402 -28 q 293 -4 355 -28 q 200 20 231 20 q 0 -29 154 20 z "},"§":{"ha":1008,"x_min":18,"x_max":985,"o":"m 465 989 q 985 450 960 966 l 536 450 q 487 399 501 429 q 471 332 472 368 q 447 410 463 380 q 404 449 430 439 l 205 449 q 675 43 232 123 q 356 43 528 -9 q 101 233 184 94 q 20 590 18 372 l 408 589 q 430 604 420 593 q 449 629 441 614 q 462 661 456 644 q 471 699 467 679 q 478 656 473 676 q 492 622 484 637 q 511 598 500 607 q 536 589 522 590 l 794 589 q 299 962 732 888 q 340 976 318 970 q 384 983 362 981 q 427 987 406 986 q 465 987 448 988 l 465 989 z "},"©":{"ha":1055,"x_min":64,"x_max":973,"o":"m 505 726 q 709 655 633 724 l 680 599 l 622 570 l 646 614 q 584 669 659 644 q 437 665 509 694 q 336 560 364 635 q 326 398 307 484 q 399 268 345 312 q 547 226 452 224 q 758 319 665 234 q 511 184 703 190 q 334 259 400 187 q 267 450 267 332 q 505 726 268 698 m 64 463 q 80 593 64 530 q 126 709 96 655 q 197 808 155 764 q 289 884 239 852 q 398 933 340 916 q 519 951 456 951 q 640 933 581 951 q 748 884 698 916 q 840 808 799 852 q 911 709 882 764 q 957 593 941 655 q 973 463 973 530 q 957 334 973 396 q 911 217 941 271 q 840 118 882 163 q 748 42 799 74 q 640 -7 698 10 q 519 -24 581 -24 q 398 -7 456 -24 q 289 42 340 10 q 197 118 239 74 q 126 217 155 163 q 80 334 96 271 q 64 463 64 396 m 134 461 q 164 298 134 374 q 249 165 195 222 q 374 75 302 108 q 526 41 445 41 q 631 56 581 41 q 725 99 681 71 q 804 164 768 126 q 865 250 840 203 q 905 350 891 296 q 919 461 919 404 q 905 572 919 519 q 865 673 891 626 q 804 758 840 720 q 725 824 768 796 q 631 866 681 851 q 526 881 581 881 q 374 848 445 881 q 249 758 302 814 q 164 624 195 701 q 134 461 134 548 z "},"®":{"ha":1055,"x_min":81,"x_max":1046,"o":"m 223 592 q 235 606 229 598 q 246 614 241 613 l 434 614 q 539 511 539 614 q 380 388 541 387 q 666 178 500 230 q 935 316 831 125 q 733 133 878 136 q 525 199 627 133 q 329 388 422 265 l 315 389 l 315 199 l 250 199 q 224 223 239 199 q 247 224 235 223 q 260 235 258 225 q 268 325 265 279 q 271 414 271 370 q 270 500 272 458 q 265 576 269 541 q 223 592 260 596 m 314 420 l 406 420 q 505 511 505 421 q 404 585 505 585 l 314 585 l 314 420 m 121 385 q 156 224 121 300 q 250 93 190 149 q 389 5 309 37 q 559 -27 468 -27 q 675 -13 619 -27 q 780 29 731 2 q 868 94 828 56 q 937 177 908 131 q 981 276 965 223 q 996 385 996 328 q 981 495 996 442 q 937 593 965 547 q 868 677 908 640 q 780 741 828 714 q 675 783 731 768 q 559 798 619 798 q 389 765 468 798 q 250 676 309 732 q 156 546 190 621 q 121 385 121 471 m 81 382 q 99 504 81 446 q 147 612 116 562 q 222 704 178 663 q 320 775 267 746 q 435 821 374 805 q 563 838 496 838 q 691 821 629 838 q 807 775 753 805 q 905 704 861 746 q 980 612 949 663 q 1028 504 1011 562 q 1046 382 1046 446 q 1028 262 1046 320 q 980 153 1011 203 q 905 61 949 102 q 807 -10 861 20 q 691 -56 753 -39 q 563 -72 629 -72 q 435 -56 496 -72 q 320 -10 374 -39 q 222 61 267 20 q 147 153 178 102 q 99 261 116 203 q 81 382 81 319 z "},"°":{"ha":550,"x_min":66,"x_max":282,"o":"m 174 739 q 251 707 219 739 q 282 631 282 675 q 251 554 282 586 q 174 523 219 523 q 98 554 130 523 q 66 631 66 586 q 98 707 66 675 q 174 739 130 739 m 176 705 q 125 684 146 705 q 104 633 104 663 q 125 583 104 604 q 176 562 146 562 q 227 583 205 562 q 248 633 248 604 q 227 684 248 663 q 176 705 206 705 z "},"ç":{"ha":1139,"x_min":31,"x_max":1097,"o":"m 570 1016 q 783 968 695 1009 q 961 836 871 928 q 1094 541 1063 711 l 1061 638 q 939 820 1015 741 q 684 966 839 920 q 500 985 602 990 q 323 948 414 986 q 127 812 232 910 q 345 981 239 948 q 570 1016 450 1015 m 399 653 l 764 653 l 764 586 l 738 549 q 706 604 742 607 l 484 607 l 484 331 l 633 331 q 703 283 675 327 l 490 283 l 484 239 l 484 0 l 682 0 q 843 83 758 -2 q 736 -50 812 4 q 655 -195 659 -103 q 934 -36 796 -153 q 1013 62 977 6 q 1074 192 1050 118 l 1097 271 q 1044 90 1072 149 q 954 -44 1015 31 q 782 -178 872 -132 q 673 -225 735 -207 q 496 -246 610 -244 q 240 -187 368 -245 q 41 -18 118 -125 q 31 14 34 -2 q 373 -199 189 -161 q 645 -197 512 -225 q 653 -64 630 -123 l 397 -64 l 350 -33 q 417 -1 410 -34 q 425 60 423 31 q 431 525 435 312 q 419 595 427 565 q 385 618 415 615 l 350 616 l 399 653 z "},"é":{"ha":484,"x_min":2,"x_max":471,"o":"m 65 640 l 389 640 l 389 562 l 361 522 q 342 588 366 588 l 134 588 l 134 330 l 255 330 q 340 283 311 327 l 134 283 l 134 17 l 312 17 q 471 96 407 27 q 419 22 441 41 q 379 -12 398 2 q 329 -62 359 -26 q 290 -180 299 -98 q 293 -43 263 -79 l 54 -43 l 2 -10 q 71 26 65 -19 q 74 583 90 304 q 30 599 68 604 l 8 596 l 65 640 z "},"‘":{"ha":272,"x_min":43,"x_max":94,"o":"m 63 546 l 49 623 q 43 665 43 654 q 50 689 43 682 q 68 696 56 696 q 87 689 79 696 q 94 668 94 682 q 87 622 94 659 l 74 546 l 63 546 z "},"’":{"ha":272,"x_min":150,"x_max":199,"o":"m 170 544 l 156 616 l 151 645 q 150 658 150 652 q 157 680 150 673 q 175 687 163 687 q 193 680 186 687 q 199 661 199 673 q 195 616 199 640 l 181 544 l 170 544 z "},"“":{"ha":272,"x_min":43,"x_max":199,"o":"m 63 546 l 49 623 q 43 665 43 654 q 50 689 43 682 q 68 696 56 696 q 87 689 79 696 q 94 668 94 682 q 87 622 94 659 l 74 546 l 63 546 m 170 544 l 156 616 l 151 645 q 150 658 150 652 q 157 680 150 673 q 175 687 163 687 q 193 680 186 687 q 199 661 199 673 q 195 616 199 640 l 181 544 l 170 544 z "},"”":{"ha":272,"x_min":43,"x_max":199,"o":"m 63 546 l 49 623 q 43 665 43 654 q 50 689 43 682 q 68 696 56 696 q 87 689 79 696 q 94 668 94 682 q 87 622 94 659 l 74 546 l 63 546 m 170 544 l 156 616 l 151 645 q 150 658 150 652 q 157 680 150 673 q 175 687 163 687 q 193 680 186 687 q 199 661 199 673 q 195 616 199 640 l 181 544 l 170 544 z "},"†":{"ha":652,"x_min":12,"x_max":614,"o":"m 202 1047 q 245 1022 226 1036 q 284 994 264 1007 q 331 971 305 981 q 393 962 357 962 q 352 679 328 859 q 523 707 481 652 q 554 638 532 670 q 614 583 575 607 q 352 626 481 652 q 400 -291 320 153 q 328 -312 357 -297 q 278 -349 298 -328 q 244 -398 258 -371 q 220 -453 231 -425 q 298 624 320 155 q 12 569 174 648 q 33 602 23 585 q 51 635 43 618 q 61 672 58 653 q 62 711 64 690 q 298 677 174 650 q 202 1047 328 861 z "},"•":{"ha":492,"x_min":76,"x_max":305,"o":"m 305 404 q 272 322 305 356 q 191 289 238 289 q 110 322 143 289 q 76 404 76 356 q 110 485 76 451 q 191 518 143 518 q 272 485 238 518 q 305 404 305 451 z "},"™":{"ha":1126,"x_min":14,"x_max":1036,"o":"m 14 826 l 14 903 l 422 903 l 424 833 q 385 863 409 867 l 237 863 l 237 446 q 290 364 242 406 l 197 414 l 197 863 l 50 863 q 14 826 22 865 m 982 880 l 980 475 q 1036 338 977 406 q 918 471 954 380 l 920 812 l 768 617 l 608 810 l 608 468 q 674 366 607 420 q 581 427 618 384 q 547 527 545 470 l 547 829 q 519 868 546 867 l 485 868 l 524 903 l 603 903 l 769 702 l 934 906 l 975 906 q 1015 884 999 903 l 982 880 z "},";":{"ha":345,"x_min":43,"x_max":159,"o":"m 43 338 l 153 338 l 153 229 l 43 229 l 43 338 m 43 169 l 153 170 q 151 64 159 111 q 126 -19 143 17 q 87 -81 110 -56 q 43 -123 64 -107 q 58 -63 49 -90 q 71 -13 66 -35 q 72 29 75 10 q 47 62 68 47 l 43 169 z "},"Q":{"ha":724,"x_min":4,"x_max":718,"o":"m 93 340 q 114 233 93 283 q 173 146 136 183 q 259 87 210 109 q 364 66 308 66 q 439 76 404 66 q 507 106 475 87 q 465 130 487 119 q 424 156 443 141 q 390 193 404 172 q 372 249 376 215 q 414 205 395 221 q 447 182 432 190 q 475 172 463 175 q 501 168 488 170 q 527 161 514 165 q 556 146 541 157 q 614 233 593 184 q 635 340 635 283 q 613 446 635 396 q 555 533 592 496 q 469 592 519 570 q 364 614 420 614 q 259 592 308 614 q 173 533 210 570 q 114 446 136 496 q 93 340 93 396 m 4 341 q 32 468 4 408 q 109 571 60 527 q 223 641 158 616 q 362 667 288 667 q 500 641 435 667 q 614 571 566 616 q 690 468 662 527 q 718 341 718 408 q 689 211 718 271 q 608 106 659 151 q 640 58 627 88 q 657 -8 652 28 q 659 -81 663 -43 q 640 -153 655 -119 q 631 -71 637 -105 q 615 -10 625 -36 q 593 35 606 16 q 561 70 579 54 q 467 31 519 45 q 362 16 415 16 q 223 41 288 16 q 109 111 158 66 q 32 214 60 155 q 4 341 4 273 z "},"O":{"ha":724,"x_min":4,"x_max":718,"o":"m 93 343 q 114 236 93 286 q 173 150 136 186 q 259 91 210 113 q 364 69 308 69 q 469 91 420 69 q 555 150 519 113 q 613 236 592 186 q 635 343 635 286 q 613 449 635 399 q 555 536 592 499 q 469 595 519 574 q 364 617 420 617 q 259 595 308 617 q 173 536 210 574 q 114 449 136 499 q 93 343 93 399 m 4 345 q 32 471 4 412 q 109 575 60 530 q 223 645 158 619 q 362 670 288 670 q 500 645 435 670 q 614 575 566 619 q 690 471 662 530 q 718 345 718 412 q 690 217 718 277 q 614 114 662 158 q 500 44 566 70 q 362 19 435 19 q 223 44 288 19 q 109 114 158 70 q 32 217 60 158 q 4 345 4 277 z "},"]":{"ha":449,"x_min":123,"x_max":398,"o":"m 127 -229 l 207 -189 l 320 -189 l 319 610 l 205 610 l 123 653 l 397 653 q 398 -229 333 204 l 127 -229 z "},"$":{"ha":366,"x_min":-39,"x_max":338,"o":"m 186 -370 q 122 -199 117 -201 l 61 -205 l 16 -207 q -39 -193 -16 -205 q 122 -167 37 -205 l 122 153 l 186 -127 q 261 -27 224 -94 q 274 125 298 41 q 226 198 267 161 q 181 230 202 214 l 185 0 l 122 277 q 38 368 64 329 q 3 455 9 414 q -2 507 -1 477 l -1 551 q 115 731 24 682 q 122 735 121 735 l 122 920 l 184 758 q 220 764 201 762 l 251 762 q 302 726 292 756 q 269 697 303 698 q 199 714 227 716 q 186 713 193 714 l 185 429 q 122 690 115 690 q 70 637 88 668 q 44 519 40 579 q 99 412 47 458 q 122 389 105 406 l 122 574 l 178 340 q 257 273 218 306 q 338 115 332 205 l 338 79 q 286 -73 336 3 q 187 -163 254 -119 l 186 -370 z "},"o":{"ha":595,"x_min":-1,"x_max":537,"o":"m 66 302 q 82 222 66 260 q 126 157 98 184 q 191 113 154 129 q 270 96 228 96 q 349 113 312 96 q 414 157 387 129 q 458 222 442 184 q 474 302 474 260 q 458 383 474 345 q 414 449 442 420 q 349 493 387 477 q 270 509 312 509 q 191 493 228 509 q 126 449 154 477 q 82 383 98 420 q 66 302 66 345 m -1 304 q 20 399 -1 355 q 78 477 41 444 q 164 530 115 511 q 269 549 213 549 q 373 530 324 549 q 458 477 422 511 q 516 399 495 444 q 537 304 537 355 q 516 208 537 253 q 458 130 495 163 q 373 78 422 97 q 269 58 324 58 q 164 78 213 58 q 78 130 115 97 q 20 208 41 163 q -1 304 -1 253 z "},"q":{"ha":615,"x_min":4,"x_max":604,"o":"m 79 276 q 97 186 79 228 q 145 113 115 144 q 218 63 176 81 q 307 45 260 45 q 370 55 340 45 q 426 80 400 64 q 391 99 410 90 q 357 121 373 109 q 328 153 340 134 q 313 199 316 171 q 348 163 332 176 q 376 143 363 150 q 400 135 389 137 q 422 131 411 133 q 444 126 433 130 q 468 113 454 123 q 516 186 498 145 q 534 276 534 228 q 516 365 534 323 q 467 438 498 407 q 395 488 436 469 q 307 506 353 506 q 218 488 260 506 q 145 438 176 469 q 97 365 115 407 q 79 276 79 323 m 4 277 q 28 383 4 334 q 92 470 52 433 q 188 529 133 507 q 304 550 242 550 q 421 529 366 550 q 516 470 475 507 q 580 383 557 433 q 604 277 604 334 q 579 168 604 218 q 511 80 554 117 q 538 39 527 64 q 553 -16 549 14 q 554 -78 557 -46 q 538 -138 551 -109 q 530 -69 535 -98 q 518 -18 526 -40 q 498 19 510 3 q 471 49 487 35 q 393 16 437 28 q 304 3 349 3 q 188 25 242 3 q 92 83 133 46 q 28 170 52 121 q 4 277 4 220 z "},"r":{"ha":448,"x_min":0,"x_max":448,"o":"m 0 513 q 17 531 8 521 q 33 543 25 541 l 298 543 q 446 407 446 542 q 250 233 448 231 q 431 3 312 96 q 277 64 326 0 l 157 233 l 132 233 l 130 0 l 38 0 q 1 31 23 0 q 18 31 9 31 q 33 33 26 31 q 45 37 40 34 q 52 47 50 41 q 63 164 59 104 q 68 281 67 223 q 67 393 69 338 q 60 493 64 447 q 0 513 52 519 m 128 289 l 258 289 q 391 406 391 287 q 256 496 391 491 l 129 496 l 128 289 z "},"m":{"ha":798,"x_min":12,"x_max":798,"o":"m 705 93 q 798 -35 703 15 q 641 138 651 -9 l 641 452 l 417 239 l 168 454 l 168 93 q 281 -35 186 22 q 149 30 201 -16 q 102 138 97 76 l 102 460 q 62 501 103 500 l 12 501 q 23 514 16 507 q 38 527 31 521 q 54 538 46 534 q 67 543 62 543 l 168 543 l 416 327 l 634 543 l 709 543 q 772 501 730 543 q 723 496 741 502 q 704 475 704 490 l 705 93 z "},"y":{"ha":477,"x_min":18,"x_max":460,"o":"m 163 -151 q 271 -9 271 -58 l 271 233 l 151 420 q 18 534 118 488 q 183 452 134 531 l 293 295 l 367 422 q 319 459 392 459 q 328 467 322 463 q 341 474 334 471 q 355 481 349 478 q 363 485 361 484 l 460 485 l 325 245 l 324 -6 q 163 -151 326 -77 z "},"t":{"ha":605,"x_min":22,"x_max":593,"o":"m 22 499 l 22 559 l 593 559 l 591 502 q 544 447 590 485 q 537 493 545 475 q 511 511 530 510 l 300 511 l 300 159 l 224 159 q 194 175 205 164 q 176 194 182 186 q 199 194 186 194 q 222 197 212 194 q 238 210 232 201 q 244 237 245 219 l 244 511 l 115 511 q 87 504 97 511 q 72 488 77 498 q 63 467 66 479 q 58 444 60 455 q 22 499 22 481 z "},"î":{"ha":609,"x_min":50,"x_max":580,"o":"m 191 678 l 189 142 l 392 142 q 580 222 498 141 q 477 115 549 146 q 437 91 456 106 q 406 57 419 75 q 387 18 393 38 q 382 -20 380 -2 q 375 1 378 -8 q 370 22 371 11 q 372 46 369 33 q 383 78 374 59 l 115 78 q 101 83 109 78 q 85 94 94 87 q 67 106 76 100 q 50 119 58 113 q 107 126 86 121 q 138 276 129 131 q 130 604 148 421 q 115 625 124 618 q 94 633 105 631 q 72 634 83 635 q 52 631 60 633 q 66 645 58 637 q 80 661 73 653 q 94 673 87 668 q 106 678 101 678 l 191 678 z "},"è":{"ha":632,"x_min":30,"x_max":632,"o":"m 427 620 l 427 547 q 423 538 427 543 q 415 527 420 533 q 404 514 410 521 q 395 503 399 508 q 366 567 399 567 l 166 568 l 165 343 l 253 342 q 345 286 302 339 l 165 286 l 165 67 l 439 68 q 554 140 489 65 q 498 54 543 94 l 449 18 q 371 -115 393 -18 q 466 -314 349 -213 q 632 -361 533 -361 q 610 -363 623 -361 q 591 -363 598 -364 l 553 -362 q 389 -277 441 -347 q 336 -117 330 -205 q 378 1 345 -42 l 71 1 q 49 10 60 1 q 30 28 38 19 q 93 62 88 27 q 98 555 127 311 q 34 588 89 595 q 45 598 38 593 q 59 609 52 604 q 72 617 66 614 q 81 621 78 621 l 427 620 z "},"ê":{"ha":525,"x_min":0,"x_max":525,"o":"m 59 543 l 376 543 l 376 479 l 340 427 l 342 452 q 278 495 349 496 l 138 495 l 138 317 l 286 317 q 349 270 324 311 l 136 270 l 136 53 l 525 55 l 525 0 l 59 0 l 0 37 q 62 50 47 33 q 81 176 77 67 q 81 447 84 286 q 8 506 80 520 l 59 543 z "},"d":{"ha":510,"x_min":16,"x_max":479,"o":"m 16 518 q 33 534 24 525 q 49 543 41 543 l 229 543 q 420 489 360 543 q 479 264 479 435 q 434 66 479 127 q 241 0 389 5 l 50 0 q 40 3 44 0 q 32 12 35 7 q 24 21 28 16 q 16 31 20 26 q 86 55 85 31 q 94 271 94 162 q 85 494 93 379 q 16 518 77 522 m 145 41 l 256 41 q 379 113 354 43 q 405 264 405 182 q 376 435 406 368 q 256 503 345 502 l 145 504 l 145 41 z "},"Ò":{"ha":670,"x_min":-16,"x_max":618,"o":"m 63 307 q 82 213 63 257 q 134 135 101 168 q 211 82 167 102 q 304 63 255 63 q 398 82 354 63 q 474 135 441 102 q 526 213 507 168 q 545 307 545 257 q 526 401 545 357 q 474 479 507 446 q 398 531 441 512 q 304 551 354 551 q 211 531 255 551 q 134 479 167 512 q 82 401 101 446 q 63 307 63 357 m -16 308 q 9 420 -16 368 q 78 513 35 473 q 179 575 121 552 q 302 597 237 597 q 425 575 368 597 q 526 513 483 552 q 594 420 569 473 q 618 308 618 368 q 594 196 618 248 q 526 104 569 143 q 425 42 483 64 q 302 19 368 19 q 179 42 237 19 q 78 104 121 64 q 9 196 35 143 q -16 308 -16 248 z "},"ï":{"ha":585,"x_min":21,"x_max":551,"o":"m 161 663 l 160 -10 l 362 -10 q 551 89 469 -12 q 448 -45 520 -5 q 409 -75 427 -56 q 377 -118 391 -95 q 358 -167 364 -142 q 353 -214 351 -192 q 346 -188 349 -199 q 341 -162 342 -176 q 342 -133 340 -149 q 354 -92 345 -116 l 86 -92 q 72 -86 80 -92 q 56 -72 64 -80 q 38 -56 47 -64 q 21 -41 29 -47 q 78 -32 57 -38 q 109 157 100 -25 q 100 570 118 340 q 85 596 95 588 q 65 607 76 604 q 42 608 54 610 q 22 604 31 606 q 36 622 29 612 q 51 641 43 632 q 64 657 58 650 q 77 663 71 663 l 161 663 z "},"u":{"ha":532,"x_min":21,"x_max":480,"o":"m 67 505 l 160 505 l 160 200 q 301 52 157 54 q 430 195 432 56 l 430 484 q 359 628 429 563 q 480 519 480 581 l 480 195 q 296 1 479 7 q 90 200 87 -2 l 90 437 q 21 469 90 469 q 67 505 53 505 z "},"i":{"ha":295,"x_min":20,"x_max":242,"o":"m 239 507 q 162 479 161 507 l 161 111 q 242 84 159 83 q 129 46 224 46 q 20 84 33 50 q 100 113 99 83 l 100 479 q 25 507 100 507 q 131 543 47 543 q 239 507 212 543 z "},"ð":{"ha":665,"x_min":24,"x_max":650,"o":"m 24 580 l 24 648 l 650 647 l 650 578 q 602 524 648 562 q 596 571 603 552 q 569 591 589 589 l 341 591 l 341 12 q 353 -46 344 -22 q 375 -86 363 -70 q 399 -113 387 -103 q 418 -130 411 -123 q 371 -107 395 -118 q 325 -81 346 -97 q 289 -40 304 -65 q 272 26 275 -14 l 272 591 l 117 591 q 90 584 100 590 q 74 568 80 578 q 66 547 68 559 q 60 525 63 536 q 24 580 24 562 z "},"ë":{"ha":561,"x_min":2,"x_max":551,"o":"m 76 555 l 455 555 l 455 487 l 423 452 q 401 510 429 510 l 156 510 l 156 287 l 298 287 q 397 246 364 284 l 156 246 l 156 15 l 365 15 q 551 84 476 24 q 491 20 515 37 q 444 -9 466 3 q 386 -53 421 -22 q 340 -155 350 -84 q 343 -37 307 -68 l 62 -37 l 2 -7 q 83 24 76 -16 q 86 505 105 264 q 35 520 79 524 l 9 517 l 76 555 z "},"^":{"ha":694,"x_min":55,"x_max":694,"o":"m 55 555 l 390 930 l 694 555 l 410 825 l 185 620 l 55 555 z "},"\"":{"ha":285,"x_min":-14,"x_max":268,"o":"m 12 481 l 38 551 q 22 621 58 594 q -14 635 11 628 l 105 635 q 12 481 97 568 m 175 482 l 201 553 q 184 623 220 595 q 149 636 174 629 l 268 636 q 175 482 260 570 z "},"`":{"ha":694,"x_min":310,"x_max":461,"o":"m 429 726 q 310 895 320 822 l 461 895 q 416 880 430 887 q 395 803 370 850 l 429 726 l 429 726 z "},"<":{"ha":694,"x_min":102,"x_max":477,"o":"m 477 23 l 102 358 l 477 663 l 208 378 l 412 153 l 477 23 z "},">":{"ha":694,"x_min":248,"x_max":623,"o":"m 248 656 l 623 321 l 248 17 l 517 302 l 313 526 l 248 656 z "},"¡":{"ha":390,"x_min":208,"x_max":323,"o":"m 214 559 l 237 519 l 269 114 q 323 51 260 41 q 312 35 319 44 q 297 18 305 26 q 280 4 289 10 q 264 -1 271 -1 l 208 -1 l 214 559 m 241 602 l 214 602 l 214 671 l 241 671 l 241 602 z "},"¢":{"ha":486,"x_min":0,"x_max":436,"o":"m 184 587 l 242 456 q 392 399 334 448 l 367 351 l 315 326 l 336 364 q 246 406 323 397 l 246 146 l 184 406 q 70 318 100 385 q 58 181 41 251 q 121 79 75 111 q 184 50 144 58 l 184 306 l 250 42 q 436 115 367 56 q 249 0 403 7 l 249 -158 l 184 4 q 61 68 108 15 q 0 226 4 134 q 184 452 0 422 l 184 587 z "},"¥":{"ha":828,"x_min":33,"x_max":791,"o":"m 287 -158 q 432 54 430 -19 l 432 188 l 50 220 l 83 241 l 432 260 l 432 321 l 50 345 l 83 363 l 432 390 l 432 414 l 209 804 q 33 972 164 905 q 252 851 184 969 l 460 505 l 568 721 q 504 776 600 776 q 516 787 508 781 q 533 799 524 793 q 551 809 543 805 q 562 814 559 813 l 690 814 l 503 431 l 503 389 l 791 370 l 768 349 l 503 320 l 503 260 l 791 248 l 763 225 l 503 188 l 502 58 q 287 -158 503 -47 z "},"ß":{"ha":60,"x_min":0,"x_max":0,"o":""}}}
